:FULLY-SPECIFIED
:FORCE-ALL-JOINTS-BE-3DOF
:DEGREES
781
root 2.45457 16.0952 18.9003 -111.86 35.6374 240.09
lfemur -43.7968 19.3925 -18.1729
ltibia 48.5116 0 0
lfoot -25.9974 21.2698 0
ltoes 22.0921 0 0
rfemur -11.2493 -21.3238 23.8047
rtibia 54.7609 0 0
rfoot -6.12653 -21.2707 0
rtoes -5.22838 0 0
lowerback 1.68844 5.39349 -0.0538935
upperback -0.736321 7.16451 -2.9548
thorax -1.30089 3.61573 -3.16559
lowerneck -5.2579 -6.22309 -0.390356
upperneck -0.888067 -8.27781 4.19364
head 0.888101 -4.05809 1.1579
lclavicle -6.78616e-014 7.04864e-014 0
lhumerus -52.5926 -9.94541 92.8925
lradius 64.6293 0 0
lwrist 18.497 0 0
lhand -19.5464 -2.76829 0
lfingers 7.12502 0 0
lthumb 6.77407 27.01 0
rclavicle -6.78616e-014 7.04864e-014 0
rhumerus -27.4148 52.6732 -107.294
rradius 76.6932 0 0
rwrist 5.4872 0 0
rhand -11.0975 -19.8388 0
rfingers 7.12502 0 0
rthumb 14.9264 -769.279 0
782
root 2.4428 16.1111 19.0106 -108.615 34.6264 243.226
lfemur -43.639 18.8449 -17.6171
ltibia 47.6862 0 0
lfoot -25.5092 20.9696 0
ltoes 21.9136 0 0
rfemur -10.8644 -20.5762 23.7598
rtibia 53.8248 0 0
rfoot -6.56416 -20.9857 0
rtoes -5.72844 0 0
lowerback 1.65679 5.41847 0.111138
upperback -0.720291 7.19964 -2.87766
thorax -1.25366 3.63257 -3.17182
lowerneck -5.27243 -6.09436 -0.294906
upperneck -0.878342 -8.11251 4.11483
head 0.884825 -3.97712 1.1218
lclavicle -6.96292e-014 6.85063e-014 0
lhumerus -52.6056 -9.8619 92.8496
lradius 64.307 0 0
lwrist 18.5219 0 0
lhand -19.2738 -2.54309 0
lfingers 7.12502 0 0
lthumb 7.03704 27.223 0
rclavicle -6.96292e-014 6.85063e-014 0
rhumerus -27.4968 52.4723 -107.383
rradius 76.4345 0 0
rwrist 5.29093 0 0
rhand -11.0555 -19.9634 0
rfingers 7.12502 0 0
rthumb 14.9668 -769.4 0
783
root 2.43104 16.1269 19.1209 -105.371 33.6155 246.362
lfemur -43.4813 18.2972 -17.0613
ltibia 46.8609 0 0
lfoot -25.021 20.6694 0
ltoes 21.735 0 0
rfemur -10.4796 -19.8286 23.715
rtibia 52.8887 0 0
rfoot -7.0018 -20.7007 0
rtoes -6.22851 0 0
lowerback 1.62514 5.44345 0.27617
upperback -0.704262 7.23477 -2.80052
thorax -1.20644 3.64942 -3.17805
lowerneck -5.28695 -5.96563 -0.199457
upperneck -0.868617 -7.9472 4.03602
head 0.88155 -3.89614 1.08571
lclavicle -7.13968e-014 6.65263e-014 0
lhumerus -52.6186 -9.77838 92.8067
lradius 63.9848 0 0
lwrist 18.5467 0 0
lhand -19.0012 -2.31788 0
lfingers 7.12502 0 0
lthumb 7.30001 27.436 0
rclavicle -7.13968e-014 6.65263e-014 0
rhumerus -27.5787 52.2715 -107.471
rradius 76.1757 0 0
rwrist 5.09467 0 0
rhand -11.0136 -20.088 0
rfingers 7.12502 0 0
rthumb 15.0072 -769.522 0
784
root 2.41928 16.1428 19.2312 -102.127 32.6045 249.498
lfemur -43.3235 17.7496 -16.5055
ltibia 46.0355 0 0
lfoot -24.5328 20.3691 0
ltoes 21.5565 0 0
rfemur -10.0947 -19.081 23.6702
rtibia 51.9526 0 0
rfoot -7.43943 -20.4157 0
rtoes -6.72857 0 0
lowerback 1.59348 5.46843 0.441202
upperback -0.688233 7.26991 -2.72338
thorax -1.15921 3.66626 -3.18429
lowerneck -5.30147 -5.83689 -0.104007
upperneck -0.858892 -7.7819 3.95721
head 0.878274 -3.81517 1.04962
lclavicle -7.31644e-014 6.45462e-014 0
lhumerus -52.6315 -9.69486 92.7638
lradius 63.6625 0 0
lwrist 18.5716 0 0
lhand -18.7286 -2.09268 0
lfingers 7.12502 0 0
lthumb 7.56298 27.649 0
rclavicle -7.31644e-014 6.45462e-014 0
rhumerus -27.6607 52.0706 -107.56
rradius 75.9169 0 0
rwrist 4.8984 0 0
rhand -10.9717 -20.2126 0
rfingers 7.12502 0 0
rthumb 15.0475 -769.643 0
785
root 2.40752 16.1587 19.3415 -98.8823 31.5935 252.634
lfemur -43.1657 17.202 -15.9497
ltibia 45.2102 0 0
lfoot -24.0446 20.0689 0
ltoes 21.378 0 0
rfemur -9.70984 -18.3335 23.6253
rtibia 51.0165 0 0
rfoot -7.87707 -20.1307 0
rtoes -7.22864 0 0
lowerback 1.56183 5.49341 0.606234
upperback -0.672204 7.30504 -2.64624
thorax -1.11199 3.6831 -3.19052
lowerneck -5.31599 -5.70816 -0.00855745
upperneck -0.849167 -7.61659 3.8784
head 0.874999 -3.7342 1.01353
lclavicle -7.4932e-014 6.25662e-014 0
lhumerus -52.6445 -9.61134 92.7209
lradius 63.3402 0 0
lwrist 18.5965 0 0
lhand -18.456 -1.86747 0
lfingers 7.12502 0 0
lthumb 7.82595 27.862 0
rclavicle -7.4932e-014 6.25662e-014 0
rhumerus -27.7427 51.8697 -107.648
rradius 75.6582 0 0
rwrist 4.70214 0 0
rhand -10.9298 -20.3372 0
rfingers 7.12502 0 0
rthumb 15.0879 -769.765 0
786
root 2.39576 16.1745 19.4518 -95.638 30.5826 255.771
lfemur -43.008 16.6544 -15.3939
ltibia 44.3848 0 0
lfoot -23.5564 19.7687 0
ltoes 21.1995 0 0
rfemur -9.32497 -17.5859 23.5805
rtibia 50.0804 0 0
rfoot -8.31471 -19.8457 0
rtoes -7.7287 0 0
lowerback 1.53018 5.51839 0.771265
upperback -0.656175 7.34017 -2.5691
thorax -1.06476 3.69994 -3.19675
lowerneck -5.33051 -5.57943 0.0868922
upperneck -0.839442 -7.45129 3.79959
head 0.871723 -3.65323 0.977437
lclavicle -7.66997e-014 6.05862e-014 0
lhumerus -52.6575 -9.52782 92.6779
lradius 63.0179 0 0
lwrist 18.6214 0 0
lhand -18.1834 -1.64227 0
lfingers 7.12502 0 0
lthumb 8.08892 28.0751 0
rclavicle -7.66997e-014 6.05862e-014 0
rhumerus -27.8246 51.6689 -107.737
rradius 75.3994 0 0
rwrist 4.50587 0 0
rhand -10.8879 -20.4618 0
rfingers 7.12502 0 0
rthumb 15.1283 -769.886 0
